<?xml version="1.0" encoding="iso-8859-1"?>
<!-- Generator: Adobe Illustrator 18.0.0, SVG Export Plug-In . SVG Version: 6.00 Build 0)  -->
<!DOCTYPE svg PUBLIC "-//W3C//DTD SVG 1.1//EN" "http://www.w3.org/Graphics/SVG/1.1/DTD/svg11.dtd">
<svg xmlns="http://www.w3.org/2000/svg" xmlns:xlink="http://www.w3.org/1999/xlink" version="1.1" id="Capa_1" x="0px" y="0px" viewBox="0 0 244 244" style="enable-background:new 0 0 244 244;" xml:space="preserve" width="512px" height="512px">
<g>
	<path d="M223,0H21C9.421,0,0,9.421,0,21v202c0,11.579,9.421,21,21,21h202c11.579,0,21-9.421,21-21V21C244,9.421,234.579,0,223,0z    M21,18h202c1.654,0,3,1.346,3,3v29.526H18V21C18,19.346,19.346,18,21,18z M223,226H21c-1.654,0-3-1.346-3-3V68.526h208V223   C226,224.654,224.654,226,223,226z" fill="#00ffce"/>
	<path d="M159.498,139H131v-28.498c0-4.971-4.029-9-9-9s-9,4.029-9,9V139H84.502c-4.971,0-9,4.029-9,9s4.029,9,9,9H113v28.498   c0,4.971,4.029,9,9,9s9-4.029,9-9V157h28.498c4.971,0,9-4.029,9-9S164.469,139,159.498,139z" fill="#00ffce"/>
</g>
<g>
</g>
<g>
</g>
<g>
</g>
<g>
</g>
<g>
</g>
<g>
</g>
<g>
</g>
<g>
</g>
<g>
</g>
<g>
</g>
<g>
</g>
<g>
</g>
<g>
</g>
<g>
</g>
<g>
</g>
</svg>
